<svg width="332" height="315" viewBox="0 0 332 315" fill="none" xmlns="http://www.w3.org/2000/svg">
<path d="M112.147 109.107C109.013 102.668 106.613 97.3652 104.948 93.1985C103.282 89.0317 102.042 84.1599 101.228 78.5829C100.414 73.0059 100.776 68.1694 102.312 64.0734C103.848 59.9773 106.787 55.6961 111.129 51.2298C115.471 46.7635 121.447 42.6786 129.094 38.9574L209.141 0L240.656 64.7547L213.217 78.1085L197.299 45.4019L146.813 69.9728C140.666 72.964 137.207 76.5482 136.471 80.7074C135.698 84.8844 136.773 89.8818 139.622 95.7354L146.975 110.845L119.537 124.199L112.183 109.089L112.147 109.107Z" fill="#000A23" fill-opacity="0.2"/>
<path d="M219.527 205.303C222.661 211.742 225.06 217.045 226.726 221.212C228.392 225.378 229.632 230.25 230.446 235.827C231.259 241.404 230.898 246.241 229.362 250.337C227.826 254.433 224.887 258.714 220.545 263.18C216.202 267.647 210.226 271.732 202.58 275.453L122.533 314.41L91.0183 249.655L118.457 236.302L134.374 269.008L184.861 244.437C191.007 241.446 194.467 237.862 195.203 233.703C195.975 229.526 194.901 224.528 192.052 218.675L184.698 203.565L212.137 190.212L219.49 205.321L219.527 205.303Z" fill="#000A23" fill-opacity="0.2"/>
<path d="M209.789 141.467C215.723 145.476 220.635 148.599 224.525 150.835C228.416 153.072 233.064 154.985 238.471 156.576C243.878 158.167 248.717 158.491 252.989 157.547C257.26 156.604 261.913 154.297 266.946 150.627C271.98 146.957 276.865 141.616 281.627 134.57L331.471 60.8086L271.801 20.4868L254.715 45.7707L284.854 66.1366L253.416 112.659C249.589 118.323 245.553 121.243 241.332 121.386C237.088 121.562 232.292 119.794 226.898 116.149L212.975 106.741L195.889 132.025L209.812 141.433L209.789 141.467Z" fill="#000A23" fill-opacity="0.2"/>
<path d="M121.681 172.975C115.748 168.966 110.836 165.843 106.946 163.607C103.055 161.37 98.4064 159.457 92.9996 157.866C87.5929 156.274 82.7537 155.951 78.4821 156.894C74.2105 157.838 69.558 160.145 64.5246 163.815C59.4912 167.485 54.6053 172.826 49.8441 179.872L0 253.633L59.67 293.955L76.7555 268.671L46.6171 248.305L78.0544 201.783C81.8816 196.119 85.9172 193.199 90.1387 193.056C94.3829 192.88 99.1791 194.648 104.573 198.293L118.496 207.701L135.582 182.417L121.659 173.009L121.681 172.975Z" fill="#000A23" fill-opacity="0.2"/>
<rect x="305.48" y="283.505" width="16.7173" height="34.4795" rx="8.35867" transform="rotate(127.072 305.48 283.505)" fill="#999DA7" fill-opacity="0.7"/>
<rect x="34.3125" y="20.5073" width="16.7173" height="34.4795" rx="8.35867" transform="rotate(-59.0862 34.3125 20.5073)" fill="#999DA7" fill-opacity="0.7"/>
<rect x="319.105" y="244.707" width="16.7173" height="34.4795" rx="8.35867" transform="rotate(103.614 319.105 244.707)" fill="#999DA7" fill-opacity="0.7"/>
<rect x="24.9277" y="60.5439" width="16.7173" height="34.4795" rx="8.35867" transform="rotate(-82.5445 24.9277 60.5439)" fill="#999DA7" fill-opacity="0.7"/>
<rect x="317.596" y="205.247" width="16.7173" height="34.4795" rx="8.35867" transform="rotate(76.3755 317.596 205.247)" fill="#999DA7" fill-opacity="0.7"/>
<rect x="30.6621" y="99.6128" width="16.7173" height="34.4795" rx="8.35867" transform="rotate(-109.783 30.6621 99.6128)" fill="#999DA7" fill-opacity="0.7"/>
</svg>
