<svg width="18" height="18" viewBox="0 0 18 18" fill="none" xmlns="http://www.w3.org/2000/svg">
<path fill-rule="evenodd" clip-rule="evenodd" d="M8.99961 17.4001C13.6388 17.4001 17.3996 13.6393 17.3996 9.0001C17.3996 4.36091 13.6388 0.600098 8.99961 0.600098C4.36042 0.600098 0.599609 4.36091 0.599609 9.0001C0.599609 13.6393 4.36042 17.4001 8.99961 17.4001ZM12.8921 7.64256C13.3021 7.23251 13.3021 6.56769 12.8921 6.15764C12.482 5.74758 11.8172 5.74758 11.4071 6.15764L7.94961 9.61517L6.59207 8.25764C6.18202 7.84758 5.5172 7.84758 5.10715 8.25764C4.6971 8.66769 4.6971 9.33251 5.10715 9.74256L7.20715 11.8426C7.6172 12.2526 8.28202 12.2526 8.69207 11.8426L12.8921 7.64256Z" fill="#12CF51"/>
</svg>
