<svg width="82" height="82" viewBox="0 0 82 82" fill="none" xmlns="http://www.w3.org/2000/svg">
<path d="M41.0002 80.1666C62.6313 80.1666 80.1668 62.6311 80.1668 40.9999C80.1668 19.3688 62.6313 1.83325 41.0002 1.83325C19.369 1.83325 1.8335 19.3688 1.8335 40.9999C1.8335 62.6311 19.369 80.1666 41.0002 80.1666Z" stroke="#1D1D1D" stroke-opacity="0.3" stroke-width="2" stroke-linecap="round" stroke-linejoin="round"/>
<path d="M31.2085 29.1141C31.2085 27.2448 31.2085 26.3101 31.5992 25.7883C31.9396 25.3335 32.4607 25.049 33.0273 25.0086C33.6775 24.9621 34.4637 25.4676 36.0362 26.4784L54.5252 38.3642C55.8897 39.2414 56.572 39.68 56.8076 40.2377C57.0135 40.725 57.0135 41.2748 56.8076 41.7621C56.572 42.3198 55.8897 42.7584 54.5252 43.6356L36.0362 55.5214C34.4637 56.5323 33.6775 57.0377 33.0273 56.9913C32.4607 56.9508 31.9396 56.6663 31.5992 56.2116C31.2085 55.6897 31.2085 54.7551 31.2085 52.8857V29.1141Z" stroke="#1D1D1D" stroke-opacity="0.3" stroke-width="2" stroke-linecap="round" stroke-linejoin="round"/>
</svg>
