<svg width="19" height="20" viewBox="0 0 19 20" fill="none" xmlns="http://www.w3.org/2000/svg">
<path d="M12.2797 3.99944C12.4751 3.47136 13.222 3.47136 13.4174 3.99944L14.6357 7.29193C14.6971 7.45795 14.828 7.58885 14.9941 7.65029L18.2866 8.86862C18.8146 9.06402 18.8146 9.81092 18.2866 10.0063L14.9941 11.2247C14.828 11.2861 14.6971 11.417 14.6357 11.583L13.4174 14.8755C13.222 15.4036 12.4751 15.4036 12.2797 14.8755L11.0613 11.583C10.9999 11.417 10.869 11.2861 10.703 11.2247L7.4105 10.0063C6.88242 9.81092 6.88242 9.06402 7.4105 8.86862L10.703 7.65029C10.869 7.58885 10.9999 7.45795 11.0613 7.29193L12.2797 3.99944Z" fill="#313131"/>
<path d="M3.16256 0.198028C3.26026 -0.0660092 3.63371 -0.0660095 3.73141 0.198028L4.38153 1.95495C4.41225 2.03797 4.4777 2.10342 4.56071 2.13413L6.31764 2.78425C6.58167 2.88196 6.58167 3.25541 6.31764 3.35311L4.56071 4.00323C4.4777 4.03395 4.41225 4.0994 4.38153 4.18241L3.73141 5.93934C3.63371 6.20337 3.26026 6.20337 3.16256 5.93934L2.51243 4.18241C2.48172 4.0994 2.41627 4.03395 2.33325 4.00323L0.576329 3.35311C0.312292 3.25541 0.312291 2.88196 0.576329 2.78425L2.33325 2.13413C2.41627 2.10342 2.48172 2.03797 2.51243 1.95495L3.16256 0.198028Z" fill="#313131"/>
<path d="M3.35206 12.6365C3.48884 12.2669 4.01167 12.2669 4.14846 12.6365L4.91119 14.6978C4.95419 14.814 5.04582 14.9056 5.16204 14.9486L7.22328 15.7113C7.59293 15.8481 7.59293 16.371 7.22328 16.5077L5.16204 17.2705C5.04582 17.3135 4.95419 17.4051 4.91119 17.5213L4.14846 19.5826C4.01167 19.9522 3.48884 19.9522 3.35206 19.5826L2.58933 17.5213C2.54633 17.4051 2.4547 17.3135 2.33848 17.2705L0.277239 16.5077C-0.0924128 16.371 -0.0924133 15.8481 0.277239 15.7113L2.33848 14.9486C2.4547 14.9056 2.54633 14.814 2.58933 14.6978L3.35206 12.6365Z" fill="#313131"/>
</svg>
