<svg width="1270" height="163" viewBox="0 0 1270 163" fill="none" xmlns="http://www.w3.org/2000/svg">
<path d="M186.743 3.56256L187.315 2.13614H185.778H145.723H145.003L144.75 2.81046L94.5524 136.595L44.0131 2.80829L43.7592 2.13614H43.0407H2.98633H1.44947L2.02153 3.56256L73.3322 181.376L73.5939 182.029H74.297H114.467H115.17L115.432 181.376L186.743 3.56256ZM342.407 182.029H344.351L343.271 180.412L298.464 113.314C308.748 110.361 317.313 104.041 324.153 94.4212L324.155 94.4181C331.298 84.2918 334.88 73.163 334.88 61.0577C334.88 45.5922 329.572 31.9201 318.99 20.0828C308.471 8.15173 295.849 2.13614 281.167 2.13614H200.596H199.556V3.17563V180.989V182.029H200.596H236.367H237.406V180.989V116.159H260.449L301.355 181.541L301.661 182.029H302.237H342.407ZM364.518 2.13614H363.478V3.17563V180.989V182.029H364.518H400.289H401.328V180.989V3.17563V2.13614H400.289H364.518ZM556.223 35.2399H557.262V34.2004V3.17563V2.13614H556.223H420.084H419.045V3.17563V34.2004V35.2399H420.084H469.518V180.989V182.029H470.557H505.866H506.905V180.989V35.2399H556.223ZM761.357 35.2399H762.396V34.2004V3.17563V2.13614H761.357H625.218H624.179V3.17563V34.2004V35.2399H625.218H674.652V180.989V182.029H675.691H711H712.039V180.989V35.2399H761.357ZM889.274 76.4543V75.4148H888.234H817.847V35.2399H898.19H899.23V34.2004V3.17563V2.13614H898.19H781.037H779.997V3.17563V180.989V182.029H781.037H898.19H899.23V180.989V149.733V148.693H898.19H817.847V108.75H888.234H889.274V107.711V76.4543ZM944.078 157.615L944.08 157.616C960.573 175.438 981.655 184.344 1007.24 184.344C1028.49 184.344 1047.14 177.147 1063.15 162.779C1079.22 148.424 1088.09 131.593 1089.66 112.31L1089.75 111.186H1088.62H1054.93H1054.02L1053.9 112.089C1052.71 121.14 1048.07 129.497 1039.87 137.162C1031.77 144.664 1020.93 148.462 1007.24 148.462C991.211 148.462 978.624 143.157 969.356 132.608C960.132 121.945 955.491 108.463 955.491 92.0825C955.491 75.8558 960.132 62.4884 969.358 51.9007C978.627 41.2758 991.213 35.9345 1007.24 35.9345C1021.64 35.9345 1032.61 39.7787 1040.32 47.3294L1040.32 47.3365C1048.2 54.9081 1052.7 63.5323 1053.9 73.2251L1054.02 74.1366H1054.93H1088.62H1089.73L1089.66 73.0337C1088.33 51.3231 1080 33.6552 1064.65 20.1082C1049.39 6.56682 1030.22 -0.179145 1007.24 -0.179145C981.58 -0.179145 960.497 8.68646 944.08 26.4329C927.68 44.1601 919.493 66.0668 919.493 92.0825C919.493 117.946 927.681 139.812 944.078 157.615ZM1268.05 3.17563V2.13614H1267.01H1231.24H1230.2V3.17563V75.1833H1155.88V3.17563V2.13614H1154.84H1119.07H1118.03V3.17563V180.989V182.029H1119.07H1154.84H1155.88V180.989V108.75H1230.2V180.989V182.029H1231.24H1267.01H1268.05V180.989V3.17563ZM237.406 86.2966V35.2399H279.778C285.617 35.2399 290.458 37.6273 294.364 42.4917C298.284 47.3724 300.271 53.4604 300.271 60.8262C300.271 68.511 298.278 74.6636 294.377 79.3764C290.478 84.0098 285.634 86.2966 279.778 86.2966H237.406Z" stroke="white" stroke-opacity="0.08" stroke-width="2.07899"/>
</svg>
